<?xml version="1.0" encoding="UTF-8"?>
<!DOCTYPE score-partwise PUBLIC "-//Recordare//DTD MusicXML 2.0 Partwise//EN" "http://www.musicxml.org/dtds/partwise.dtd">
<score-partwise>
  <identification>
    <encoding>
      <software>MuseScore 1.3</software>
      <encoding-date>2013-05-12</encoding-date>
      </encoding>
    <source>http://api.musescore.com/score/105942</source>
    </identification>
  <defaults>
    <scaling>
      <millimeters>7.056</millimeters>
      <tenths>40</tenths>
      </scaling>
    <page-layout>
      <page-height>1683.67</page-height>
      <page-width>1190.48</page-width>
      <page-margins type="even">
        <left-margin>56.6893</left-margin>
        <right-margin>56.6893</right-margin>
        <top-margin>56.6893</top-margin>
        <bottom-margin>113.379</bottom-margin>
        </page-margins>
      <page-margins type="odd">
        <left-margin>56.6893</left-margin>
        <right-margin>56.6893</right-margin>
        <top-margin>56.6893</top-margin>
        <bottom-margin>113.379</bottom-margin>
        </page-margins>
      </page-layout>
    </defaults>
  <credit page="1">
    <credit-words default-x="595.238" default-y="1626.98" font-size="24" justify="center" valign="top">Ave Maria for Cello (Bach Gounod)</credit-words>
    </credit>
  <part-list>
    <score-part id="P1">
      <part-name>Cello</part-name>
      <part-abbreviation>Vlc.</part-abbreviation>
      <score-instrument id="P1-I3">
        <instrument-name>Cello</instrument-name>
        </score-instrument>
      <midi-instrument id="P1-I3">
        <midi-channel>1</midi-channel>
        <midi-program>43</midi-program>
        <volume>78.7402</volume>
        <pan>0</pan>
        </midi-instrument>
      </score-part>
    </part-list>
  <part id="P1">
    <measure number="1" width="142.41">
      <print>
        <system-layout>
          <system-margins>
            <left-margin>66.83</left-margin>
            <right-margin>0.00</right-margin>
            </system-margins>
          <top-system-distance>198.62</top-system-distance>
          </system-layout>
        </print>
      <attributes>
        <divisions>2</divisions>
        <key>
          <fifths>0</fifths>
          <mode>major</mode>
          </key>
        <clef>
          <sign>F</sign>
          <line>4</line>
          </clef>
        <transpose>
          <diatonic>7</diatonic>
          <chromatic>12</chromatic>
          </transpose>
        </attributes>
      <note default-x="54.33" default-y="-15.00">
        <pitch>
          <step>E</step>
          <octave>4</octave>
          </pitch>
        <duration>8</duration>
        <tie type="start"/>
        <voice>1</voice>
        <type>whole</type>
        <notations>
          <tied type="start"/>
          <technical>
            <string>1</string>
            </technical>
          </notations>
        </note>
      </measure>
    <measure number="2" width="100.08">
      <note default-x="12.00" default-y="-15.00">
        <pitch>
          <step>E</step>
          <octave>4</octave>
          </pitch>
        <duration>8</duration>
        <tie type="stop"/>
        <voice>1</voice>
        <type>whole</type>
        <notations>
          <tied type="stop"/>
          </notations>
        </note>
      </measure>
    <measure number="3" width="100.08">
      <note default-x="12.00" default-y="-10.00">
        <pitch>
          <step>F</step>
          <octave>4</octave>
          </pitch>
        <duration>8</duration>
        <tie type="start"/>
        <voice>1</voice>
        <type>whole</type>
        <notations>
          <tied type="start"/>
          <technical>
            <string>2</string>
            </technical>
          </notations>
        </note>
      </measure>
    <measure number="4" width="124.84">
      <note default-x="12.00" default-y="-10.00">
        <pitch>
          <step>F</step>
          <octave>4</octave>
          </pitch>
        <duration>4</duration>
        <tie type="stop"/>
        <voice>1</voice>
        <type>half</type>
        <stem>down</stem>
        <notations>
          <tied type="stop"/>
          </notations>
        </note>
      <note>
        <rest/>
        <duration>2</duration>
        <voice>1</voice>
        <type>quarter</type>
        </note>
      <note default-x="92.34" default-y="-10.00">
        <pitch>
          <step>F</step>
          <octave>4</octave>
          </pitch>
        <duration>2</duration>
        <voice>1</voice>
        <type>quarter</type>
        <stem>down</stem>
        <notations>
          <technical>
            <string>2</string>
            </technical>
          </notations>
        </note>
      </measure>
    <measure number="5" width="100.08">
      <note default-x="12.00" default-y="-5.00">
        <pitch>
          <step>G</step>
          <octave>4</octave>
          </pitch>
        <duration>8</duration>
        <tie type="start"/>
        <voice>1</voice>
        <type>whole</type>
        <notations>
          <tied type="start"/>
          <technical>
            <string>4</string>
            </technical>
          </notations>
        </note>
      </measure>
    <measure number="6" width="112.08">
      <note default-x="12.00" default-y="-5.00">
        <pitch>
          <step>G</step>
          <octave>4</octave>
          </pitch>
        <duration>4</duration>
        <tie type="stop"/>
        <voice>1</voice>
        <type>half</type>
        <stem>down</stem>
        <notations>
          <tied type="stop"/>
          </notations>
        </note>
      <note default-x="61.24" default-y="-20.00">
        <pitch>
          <step>D</step>
          <octave>4</octave>
          </pitch>
        <duration>4</duration>
        <voice>1</voice>
        <type>half</type>
        <stem>down</stem>
        <notations>
          <technical>
            <string>0</string>
            </technical>
          </notations>
        </note>
      </measure>
    <measure number="7" width="100.08">
      <note default-x="12.00" default-y="-15.00">
        <pitch>
          <step>E</step>
          <octave>4</octave>
          </pitch>
        <duration>8</duration>
        <tie type="start"/>
        <voice>1</voice>
        <type>whole</type>
        <notations>
          <tied type="start"/>
          <technical>
            <string>1</string>
            </technical>
          </notations>
        </note>
      </measure>
    <measure number="8" width="130.54">
      <note default-x="12.00" default-y="-15.00">
        <pitch>
          <step>E</step>
          <octave>4</octave>
          </pitch>
        <duration>2</duration>
        <tie type="stop"/>
        <voice>1</voice>
        <type>quarter</type>
        <stem>down</stem>
        <notations>
          <tied type="stop"/>
          </notations>
        </note>
      <note>
        <rest/>
        <duration>2</duration>
        <voice>1</voice>
        <type>quarter</type>
        </note>
      <note>
        <rest/>
        <duration>4</duration>
        <voice>1</voice>
        <type>half</type>
        </note>
      <barline location="right">
        <bar-style>light-light</bar-style>
        </barline>
      </measure>
    <measure number="9" width="100.08">
      <note default-x="12.00" default-y="0.00">
        <pitch>
          <step>A</step>
          <octave>4</octave>
          </pitch>
        <duration>8</duration>
        <tie type="start"/>
        <voice>1</voice>
        <type>whole</type>
        <notations>
          <tied type="start"/>
          <technical>
            <string>0</string>
            </technical>
          </notations>
        </note>
      </measure>
    <measure number="10" width="189.59">
      <print new-system="yes">
        <system-layout>
          <system-margins>
            <left-margin>55.49</left-margin>
            <right-margin>0.00</right-margin>
            </system-margins>
          <system-distance>110.62</system-distance>
          </system-layout>
        </print>
      <note default-x="54.33" default-y="0.00">
        <pitch>
          <step>A</step>
          <octave>4</octave>
          </pitch>
        <duration>2</duration>
        <tie type="stop"/>
        <voice>1</voice>
        <type>quarter</type>
        <stem>down</stem>
        <notations>
          <tied type="stop"/>
          </notations>
        </note>
      <note default-x="87.75" default-y="-35.00">
        <pitch>
          <step>A</step>
          <octave>3</octave>
          </pitch>
        <duration>2</duration>
        <voice>1</voice>
        <type>quarter</type>
        <stem>up</stem>
        <notations>
          <technical>
            <string>1</string>
            </technical>
          </notations>
        </note>
      <note default-x="121.16" default-y="-30.00">
        <pitch>
          <step>B</step>
          <octave>3</octave>
          </pitch>
        <duration>2</duration>
        <voice>1</voice>
        <type>quarter</type>
        <stem>up</stem>
        <notations>
          <technical>
            <string>3</string>
            </technical>
          </notations>
        </note>
      <note default-x="154.57" default-y="-25.00">
        <pitch>
          <step>C</step>
          <octave>4</octave>
          </pitch>
        <duration>2</duration>
        <voice>1</voice>
        <type>quarter</type>
        <stem>up</stem>
        <notations>
          <technical>
            <string>4</string>
            </technical>
          </notations>
        </note>
      </measure>
    <measure number="11" width="122.17">
      <note default-x="12.00" default-y="-20.00">
        <pitch>
          <step>D</step>
          <octave>4</octave>
          </pitch>
        <duration>6</duration>
        <voice>1</voice>
        <type>half</type>
        <dot/>
        <stem>down</stem>
        <notations>
          <technical>
            <string>0</string>
            </technical>
          </notations>
        </note>
      <note default-x="83.78" default-y="-15.00">
        <pitch>
          <step>E</step>
          <octave>4</octave>
          </pitch>
        <duration>2</duration>
        <voice>1</voice>
        <type>quarter</type>
        <stem>down</stem>
        <notations>
          <technical>
            <string>1</string>
            </technical>
          </notations>
        </note>
      </measure>
    <measure number="12" width="115.51">
      <note default-x="12.00" default-y="-20.00">
        <pitch>
          <step>D</step>
          <octave>4</octave>
          </pitch>
        <duration>4</duration>
        <voice>1</voice>
        <type>half</type>
        <stem>down</stem>
        <notations>
          <technical>
            <string>0</string>
            </technical>
          </notations>
        </note>
      <note>
        <rest/>
        <duration>4</duration>
        <voice>1</voice>
        <type>half</type>
        </note>
      </measure>
    <measure number="13" width="102.41">
      <note default-x="12.00" default-y="-5.00">
        <pitch>
          <step>G</step>
          <octave>4</octave>
          </pitch>
        <duration>8</duration>
        <tie type="start"/>
        <voice>1</voice>
        <type>whole</type>
        <notations>
          <tied type="start"/>
          <technical>
            <string>4</string>
            </technical>
          </notations>
        </note>
      </measure>
    <measure number="14" width="151.85">
      <note default-x="12.00" default-y="-5.00">
        <pitch>
          <step>G</step>
          <octave>4</octave>
          </pitch>
        <duration>2</duration>
        <tie type="stop"/>
        <voice>1</voice>
        <type>quarter</type>
        <stem>down</stem>
        <notations>
          <tied type="stop"/>
          </notations>
        </note>
      <note default-x="45.41" default-y="-40.00">
        <pitch>
          <step>G</step>
          <octave>3</octave>
          </pitch>
        <duration>2</duration>
        <voice>1</voice>
        <type>quarter</type>
        <stem>up</stem>
        <notations>
          <technical>
            <string>0</string>
            </technical>
          </notations>
        </note>
      <note default-x="78.83" default-y="-35.00">
        <pitch>
          <step>A</step>
          <octave>3</octave>
          </pitch>
        <duration>2</duration>
        <voice>1</voice>
        <type>quarter</type>
        <stem>up</stem>
        <notations>
          <technical>
            <string>1</string>
            </technical>
          </notations>
        </note>
      <note default-x="112.24" default-y="-30.00">
        <pitch>
          <step>B</step>
          <octave>3</octave>
          </pitch>
        <duration>2</duration>
        <voice>1</voice>
        <type>quarter</type>
        <stem>up</stem>
        <notations>
          <technical>
            <string>3</string>
            </technical>
          </notations>
        </note>
      <barline location="right">
        <bar-style>light-light</bar-style>
        </barline>
      </measure>
    <measure number="15" width="122.17">
      <note default-x="12.00" default-y="-25.00">
        <pitch>
          <step>C</step>
          <octave>4</octave>
          </pitch>
        <duration>6</duration>
        <voice>1</voice>
        <type>half</type>
        <dot/>
        <stem>up</stem>
        <notations>
          <technical>
            <string>4</string>
            </technical>
          </notations>
        </note>
      <note default-x="83.78" default-y="-20.00">
        <pitch>
          <step>D</step>
          <octave>4</octave>
          </pitch>
        <duration>2</duration>
        <voice>1</voice>
        <type>quarter</type>
        <stem>down</stem>
        <notations>
          <technical>
            <string>0</string>
            </technical>
          </notations>
        </note>
      </measure>
    <measure number="16" width="115.51">
      <note default-x="12.00" default-y="-25.00">
        <pitch>
          <step>C</step>
          <octave>4</octave>
          </pitch>
        <duration>4</duration>
        <voice>1</voice>
        <type>half</type>
        <stem>up</stem>
        <notations>
          <technical>
            <string>4</string>
            </technical>
          </notations>
        </note>
      <note>
        <rest/>
        <duration>4</duration>
        <voice>1</voice>
        <type>half</type>
        </note>
      </measure>
    <measure number="17" width="102.41">
      <note default-x="12.00" default-y="10.00">
        <pitch>
          <step>C</step>
          <octave>5</octave>
          </pitch>
        <duration>8</duration>
        <tie type="start"/>
        <voice>1</voice>
        <type>whole</type>
        <notations>
          <tied type="start"/>
          <technical>
            <string>2</string>
            </technical>
          </notations>
        </note>
      </measure>
    <measure number="18" width="187.95">
      <print new-system="yes">
        <system-layout>
          <system-margins>
            <left-margin>55.49</left-margin>
            <right-margin>0.00</right-margin>
            </system-margins>
          <system-distance>110.62</system-distance>
          </system-layout>
        </print>
      <note default-x="54.33" default-y="10.00">
        <pitch>
          <step>C</step>
          <octave>5</octave>
          </pitch>
        <duration>2</duration>
        <tie type="stop"/>
        <voice>1</voice>
        <type>quarter</type>
        <stem>down</stem>
        <notations>
          <tied type="stop"/>
          </notations>
        </note>
      <note default-x="87.34" default-y="-25.00">
        <pitch>
          <step>C</step>
          <octave>4</octave>
          </pitch>
        <duration>2</duration>
        <voice>1</voice>
        <type>quarter</type>
        <stem>up</stem>
        <notations>
          <technical>
            <string>4</string>
            </technical>
          </notations>
        </note>
      <note default-x="120.34" default-y="-20.00">
        <pitch>
          <step>D</step>
          <octave>4</octave>
          </pitch>
        <duration>2</duration>
        <voice>1</voice>
        <type>quarter</type>
        <stem>down</stem>
        <notations>
          <technical>
            <string>0</string>
            </technical>
          </notations>
        </note>
      <note default-x="153.35" default-y="-15.00">
        <pitch>
          <step>E</step>
          <octave>4</octave>
          </pitch>
        <duration>2</duration>
        <voice>1</voice>
        <type>quarter</type>
        <stem>down</stem>
        <notations>
          <technical>
            <string>1</string>
            </technical>
          </notations>
        </note>
      </measure>
    <measure number="19" width="125.33">
      <note default-x="16.80" default-y="-10.00">
        <pitch>
          <step>F</step>
          <alter>1</alter>
          <octave>4</octave>
          </pitch>
        <duration>6</duration>
        <voice>1</voice>
        <type>half</type>
        <dot/>
        <accidental>sharp</accidental>
        <stem>down</stem>
        <notations>
          <technical>
            <string>3</string>
            </technical>
          </notations>
        </note>
      <note default-x="87.49" default-y="-15.00">
        <pitch>
          <step>E</step>
          <octave>4</octave>
          </pitch>
        <duration>2</duration>
        <voice>1</voice>
        <type>quarter</type>
        <stem>down</stem>
        <notations>
          <technical>
            <string>1</string>
            </technical>
          </notations>
        </note>
      </measure>
    <measure number="20" width="112.77">
      <note default-x="12.00" default-y="-20.00">
        <pitch>
          <step>D</step>
          <octave>4</octave>
          </pitch>
        <duration>4</duration>
        <voice>1</voice>
        <type>half</type>
        <stem>down</stem>
        <notations>
          <technical>
            <string>0</string>
            </technical>
          </notations>
        </note>
      <note default-x="61.58" default-y="-35.00">
        <pitch>
          <step>A</step>
          <octave>3</octave>
          </pitch>
        <duration>4</duration>
        <voice>1</voice>
        <type>half</type>
        <stem>up</stem>
        <notations>
          <technical>
            <string>1</string>
            </technical>
          </notations>
        </note>
      </measure>
    <measure number="21" width="100.77">
      <note default-x="12.00" default-y="-30.00">
        <pitch>
          <step>B</step>
          <octave>3</octave>
          </pitch>
        <duration>8</duration>
        <voice>1</voice>
        <type>whole</type>
        <notations>
          <technical>
            <string>3</string>
            </technical>
          </notations>
        </note>
      </measure>
    <measure number="22" width="113.87">
      <note>
        <rest/>
        <duration>4</duration>
        <voice>1</voice>
        <type>half</type>
        </note>
      <note default-x="62.13" default-y="-20.00">
        <pitch>
          <step>D</step>
          <octave>4</octave>
          </pitch>
        <duration>4</duration>
        <voice>1</voice>
        <type>half</type>
        <stem>down</stem>
        <notations>
          <technical>
            <string>0</string>
            </technical>
          </notations>
        </note>
      </measure>
    <measure number="23" width="100.77">
      <note default-x="12.00" default-y="-15.00">
        <pitch>
          <step>E</step>
          <octave>4</octave>
          </pitch>
        <duration>8</duration>
        <tie type="start"/>
        <voice>1</voice>
        <type>whole</type>
        <notations>
          <tied type="start"/>
          <technical>
            <string>1</string>
            </technical>
          </notations>
        </note>
      </measure>
    <measure number="24" width="145.62">
      <note default-x="12.00" default-y="-15.00">
        <pitch>
          <step>E</step>
          <octave>4</octave>
          </pitch>
        <duration>2</duration>
        <tie type="stop"/>
        <voice>1</voice>
        <type>quarter</type>
        <stem>down</stem>
        <notations>
          <tied type="stop"/>
          </notations>
        </note>
      <note default-x="45.00" default-y="-15.00">
        <pitch>
          <step>E</step>
          <octave>4</octave>
          </pitch>
        <duration>2</duration>
        <voice>1</voice>
        <type>quarter</type>
        <stem>down</stem>
        <notations>
          <technical>
            <string>1</string>
            </technical>
          </notations>
        </note>
      <note default-x="78.01" default-y="-10.00">
        <pitch>
          <step>F</step>
          <octave>4</octave>
          </pitch>
        <duration>2</duration>
        <voice>1</voice>
        <type>quarter</type>
        <stem>down</stem>
        <notations>
          <technical>
            <string>2</string>
            </technical>
          </notations>
        </note>
      <note default-x="111.01" default-y="-5.00">
        <pitch>
          <step>G</step>
          <octave>4</octave>
          </pitch>
        <duration>2</duration>
        <voice>1</voice>
        <type>quarter</type>
        <stem>down</stem>
        <notations>
          <technical>
            <string>4</string>
            </technical>
          </notations>
        </note>
      </measure>
    <measure number="25" width="134.54">
      <note default-x="12.00" default-y="0.00">
        <pitch>
          <step>A</step>
          <octave>4</octave>
          </pitch>
        <duration>7</duration>
        <voice>1</voice>
        <type>half</type>
        <dot/>
        <dot/>
        <stem>down</stem>
        <notations>
          <technical>
            <string>0</string>
            </technical>
          </notations>
        </note>
      <note default-x="100.12" default-y="-35.00">
        <pitch>
          <step>A</step>
          <octave>3</octave>
          </pitch>
        <duration>1</duration>
        <voice>1</voice>
        <type>eighth</type>
        <stem>up</stem>
        <notations>
          <technical>
            <string>1</string>
            </technical>
          </notations>
        </note>
      </measure>
    <measure number="26" width="162.78">
      <print new-system="yes">
        <system-layout>
          <system-margins>
            <left-margin>55.49</left-margin>
            <right-margin>0.00</right-margin>
            </system-margins>
          <system-distance>110.62</system-distance>
          </system-layout>
        </print>
      <note default-x="54.33" default-y="-35.00">
        <pitch>
          <step>A</step>
          <octave>3</octave>
          </pitch>
        <duration>4</duration>
        <voice>1</voice>
        <type>half</type>
        <stem>up</stem>
        <notations>
          <technical>
            <string>1</string>
            </technical>
          </notations>
        </note>
      <note>
        <rest/>
        <duration>4</duration>
        <voice>1</voice>
        <type>half</type>
        </note>
      </measure>
    <measure number="27" width="107.35">
      <note default-x="12.00" default-y="-20.00">
        <pitch>
          <step>D</step>
          <octave>4</octave>
          </pitch>
        <duration>8</duration>
        <tie type="start"/>
        <voice>1</voice>
        <type>whole</type>
        <notations>
          <tied type="start"/>
          <technical>
            <string>0</string>
            </technical>
          </notations>
        </note>
      </measure>
    <measure number="28" width="152.19">
      <note default-x="12.00" default-y="-20.00">
        <pitch>
          <step>D</step>
          <octave>4</octave>
          </pitch>
        <duration>2</duration>
        <tie type="stop"/>
        <voice>1</voice>
        <type>quarter</type>
        <stem>down</stem>
        <notations>
          <tied type="stop"/>
          </notations>
        </note>
      <note default-x="46.65" default-y="-20.00">
        <pitch>
          <step>D</step>
          <octave>4</octave>
          </pitch>
        <duration>2</duration>
        <voice>1</voice>
        <type>quarter</type>
        <stem>down</stem>
        <notations>
          <technical>
            <string>0</string>
            </technical>
          </notations>
        </note>
      <note default-x="81.30" default-y="-15.00">
        <pitch>
          <step>E</step>
          <octave>4</octave>
          </pitch>
        <duration>2</duration>
        <voice>1</voice>
        <type>quarter</type>
        <stem>down</stem>
        <notations>
          <technical>
            <string>1</string>
            </technical>
          </notations>
        </note>
      <note default-x="115.95" default-y="-10.00">
        <pitch>
          <step>F</step>
          <octave>4</octave>
          </pitch>
        <duration>2</duration>
        <voice>1</voice>
        <type>quarter</type>
        <stem>down</stem>
        <notations>
          <technical>
            <string>2</string>
            </technical>
          </notations>
        </note>
      </measure>
    <measure number="29" width="107.35">
      <note default-x="12.00" default-y="-5.00">
        <pitch>
          <step>G</step>
          <octave>4</octave>
          </pitch>
        <duration>8</duration>
        <voice>1</voice>
        <type>whole</type>
        <notations>
          <technical>
            <string>4</string>
            </technical>
          </notations>
        </note>
      </measure>
    <measure number="30" width="125.05">
      <note default-x="12.00" default-y="-40.00">
        <pitch>
          <step>G</step>
          <octave>3</octave>
          </pitch>
        <duration>4</duration>
        <voice>1</voice>
        <type>half</type>
        <stem>up</stem>
        <notations>
          <technical>
            <string>0</string>
            </technical>
          </notations>
        </note>
      <note>
        <rest/>
        <duration>4</duration>
        <voice>1</voice>
        <type>half</type>
        </note>
      <barline location="right">
        <bar-style>light-light</bar-style>
        </barline>
      </measure>
    <measure number="31" width="107.35">
      <note default-x="12.00" default-y="-25.00">
        <pitch>
          <step>C</step>
          <octave>4</octave>
          </pitch>
        <duration>8</duration>
        <tie type="start"/>
        <voice>1</voice>
        <type>whole</type>
        <notations>
          <tied type="start"/>
          <technical>
            <string>4</string>
            </technical>
          </notations>
        </note>
      </measure>
    <measure number="32" width="152.19">
      <note default-x="12.00" default-y="-25.00">
        <pitch>
          <step>C</step>
          <octave>4</octave>
          </pitch>
        <duration>2</duration>
        <tie type="stop"/>
        <voice>1</voice>
        <type>quarter</type>
        <stem>up</stem>
        <notations>
          <tied type="stop"/>
          </notations>
        </note>
      <note default-x="46.65" default-y="-25.00">
        <pitch>
          <step>C</step>
          <octave>4</octave>
          </pitch>
        <duration>2</duration>
        <voice>1</voice>
        <type>quarter</type>
        <stem>up</stem>
        <notations>
          <technical>
            <string>4</string>
            </technical>
          </notations>
        </note>
      <note default-x="81.30" default-y="-20.00">
        <pitch>
          <step>D</step>
          <octave>4</octave>
          </pitch>
        <duration>2</duration>
        <voice>1</voice>
        <type>quarter</type>
        <stem>down</stem>
        <notations>
          <technical>
            <string>0</string>
            </technical>
          </notations>
        </note>
      <note default-x="115.95" default-y="-15.00">
        <pitch>
          <step>E</step>
          <octave>4</octave>
          </pitch>
        <duration>2</duration>
        <voice>1</voice>
        <type>quarter</type>
        <stem>down</stem>
        <notations>
          <technical>
            <string>1</string>
            </technical>
          </notations>
        </note>
      </measure>
    <measure number="33" width="107.35">
      <note default-x="12.00" default-y="-10.00">
        <pitch>
          <step>F</step>
          <octave>4</octave>
          </pitch>
        <duration>8</duration>
        <tie type="start"/>
        <voice>1</voice>
        <type>whole</type>
        <notations>
          <tied type="start"/>
          <technical>
            <string>2</string>
            </technical>
          </notations>
        </note>
      </measure>
    <measure number="34" width="191.94">
      <print new-system="yes">
        <system-layout>
          <system-margins>
            <left-margin>55.49</left-margin>
            <right-margin>0.00</right-margin>
            </system-margins>
          <system-distance>110.62</system-distance>
          </system-layout>
        </print>
      <note default-x="54.33" default-y="-10.00">
        <pitch>
          <step>F</step>
          <octave>4</octave>
          </pitch>
        <duration>2</duration>
        <tie type="stop"/>
        <voice>1</voice>
        <type>quarter</type>
        <stem>down</stem>
        <notations>
          <tied type="stop"/>
          </notations>
        </note>
      <note default-x="88.33" default-y="-10.00">
        <pitch>
          <step>F</step>
          <octave>4</octave>
          </pitch>
        <duration>2</duration>
        <voice>1</voice>
        <type>quarter</type>
        <stem>down</stem>
        <notations>
          <technical>
            <string>2</string>
            </technical>
          </notations>
        </note>
      <note default-x="122.33" default-y="-5.00">
        <pitch>
          <step>G</step>
          <octave>4</octave>
          </pitch>
        <duration>2</duration>
        <voice>1</voice>
        <type>quarter</type>
        <stem>down</stem>
        <notations>
          <technical>
            <string>4</string>
            </technical>
          </notations>
        </note>
      <note default-x="156.34" default-y="0.00">
        <pitch>
          <step>A</step>
          <octave>4</octave>
          </pitch>
        <duration>2</duration>
        <voice>1</voice>
        <type>quarter</type>
        <stem>down</stem>
        <notations>
          <technical>
            <string>0</string>
            </technical>
          </notations>
        </note>
      </measure>
    <measure number="35" width="124.52">
      <note default-x="12.00" default-y="5.00">
        <pitch>
          <step>B</step>
          <octave>4</octave>
          </pitch>
        <duration>6</duration>
        <voice>1</voice>
        <type>half</type>
        <dot/>
        <stem>down</stem>
        <notations>
          <technical>
            <string>1</string>
            </technical>
          </notations>
        </note>
      <note default-x="85.33" default-y="0.00">
        <pitch>
          <step>A</step>
          <octave>4</octave>
          </pitch>
        <duration>2</duration>
        <voice>1</voice>
        <type>quarter</type>
        <stem>down</stem>
        <notations>
          <technical>
            <string>0</string>
            </technical>
          </notations>
        </note>
      </measure>
    <measure number="36" width="116.76">
      <note default-x="12.00" default-y="-5.00">
        <pitch>
          <step>G</step>
          <octave>4</octave>
          </pitch>
        <duration>4</duration>
        <voice>1</voice>
        <type>half</type>
        <stem>down</stem>
        <notations>
          <technical>
            <string>4</string>
            </technical>
          </notations>
        </note>
      <note default-x="63.58" default-y="-20.00">
        <pitch>
          <step>D</step>
          <octave>4</octave>
          </pitch>
        <duration>4</duration>
        <voice>1</voice>
        <type>half</type>
        <stem>down</stem>
        <notations>
          <technical>
            <string>0</string>
            </technical>
          </notations>
        </note>
      </measure>
    <measure number="37" width="104.76">
      <note default-x="12.00" default-y="-15.00">
        <pitch>
          <step>E</step>
          <octave>4</octave>
          </pitch>
        <duration>8</duration>
        <tie type="start"/>
        <voice>1</voice>
        <type>whole</type>
        <notations>
          <tied type="start"/>
          <technical>
            <string>1</string>
            </technical>
          </notations>
        </note>
      </measure>
    <measure number="38" width="130.62">
      <note default-x="12.00" default-y="-15.00">
        <pitch>
          <step>E</step>
          <octave>4</octave>
          </pitch>
        <duration>2</duration>
        <tie type="stop"/>
        <voice>1</voice>
        <type>quarter</type>
        <stem>down</stem>
        <notations>
          <tied type="stop"/>
          </notations>
        </note>
      <note>
        <rest/>
        <duration>2</duration>
        <voice>1</voice>
        <type>quarter</type>
        </note>
      <note>
        <rest/>
        <duration>4</duration>
        <voice>1</voice>
        <type>half</type>
        </note>
      </measure>
    <measure number="39" width="104.76">
      <note default-x="12.00" default-y="-5.00">
        <pitch>
          <step>G</step>
          <octave>4</octave>
          </pitch>
        <duration>8</duration>
        <voice>1</voice>
        <type>whole</type>
        <notations>
          <technical>
            <string>4</string>
            </technical>
          </notations>
        </note>
      </measure>
    <measure number="40" width="143.52">
      <note default-x="12.00" default-y="-15.00">
        <pitch>
          <step>E</step>
          <octave>4</octave>
          </pitch>
        <duration>4</duration>
        <voice>1</voice>
        <type>half</type>
        <stem>down</stem>
        <notations>
          <technical>
            <string>1</string>
            </technical>
          </notations>
        </note>
      <note>
        <rest/>
        <duration>1</duration>
        <voice>1</voice>
        <type>eighth</type>
        </note>
      <note>
        <rest/>
        <duration>2</duration>
        <voice>1</voice>
        <type>quarter</type>
        </note>
      <note default-x="118.75" default-y="-15.00">
        <pitch>
          <step>E</step>
          <octave>4</octave>
          </pitch>
        <duration>1</duration>
        <voice>1</voice>
        <type>eighth</type>
        <stem>down</stem>
        <notations>
          <technical>
            <string>1</string>
            </technical>
          </notations>
        </note>
      </measure>
    <measure number="41" width="104.76">
      <note default-x="12.00" default-y="0.00">
        <pitch>
          <step>A</step>
          <octave>4</octave>
          </pitch>
        <duration>8</duration>
        <voice>1</voice>
        <type>whole</type>
        <notations>
          <technical>
            <string>0</string>
            </technical>
          </notations>
        </note>
      </measure>
    <measure number="42" width="150.31">
      <print new-system="yes">
        <system-layout>
          <system-margins>
            <left-margin>55.49</left-margin>
            <right-margin>0.00</right-margin>
            </system-margins>
          <system-distance>110.62</system-distance>
          </system-layout>
        </print>
      <note default-x="54.33" default-y="-35.00">
        <pitch>
          <step>A</step>
          <octave>3</octave>
          </pitch>
        <duration>4</duration>
        <voice>1</voice>
        <type>half</type>
        <stem>up</stem>
        <notations>
          <technical>
            <string>1</string>
            </technical>
          </notations>
        </note>
      <note>
        <rest/>
        <duration>4</duration>
        <voice>1</voice>
        <type>half</type>
        </note>
      </measure>
    <measure number="43" width="94.88">
      <note default-x="12.00" default-y="0.00">
        <pitch>
          <step>A</step>
          <octave>4</octave>
          </pitch>
        <duration>8</duration>
        <voice>1</voice>
        <type>whole</type>
        <notations>
          <technical>
            <string>0</string>
            </technical>
          </notations>
        </note>
      </measure>
    <measure number="44" width="119.64">
      <note default-x="12.00" default-y="-25.00">
        <pitch>
          <step>C</step>
          <octave>4</octave>
          </pitch>
        <duration>4</duration>
        <voice>1</voice>
        <type>half</type>
        <stem>up</stem>
        <notations>
          <technical>
            <string>4</string>
            </technical>
          </notations>
        </note>
      <note>
        <rest/>
        <duration>3</duration>
        <voice>1</voice>
        <type>quarter</type>
        <dot/>
        </note>
      <note default-x="94.88" default-y="0.00">
        <pitch>
          <step>A</step>
          <octave>4</octave>
          </pitch>
        <duration>1</duration>
        <voice>1</voice>
        <type>eighth</type>
        <stem>down</stem>
        </note>
      </measure>
    <measure number="45" width="94.88">
      <note default-x="12.00" default-y="10.00">
        <pitch>
          <step>C</step>
          <octave>5</octave>
          </pitch>
        <duration>8</duration>
        <voice>1</voice>
        <type>whole</type>
        <notations>
          <technical>
            <string>2</string>
            </technical>
          </notations>
        </note>
      </measure>
    <measure number="46" width="124.44">
      <note default-x="16.80" default-y="-20.00">
        <pitch>
          <step>D</step>
          <alter>1</alter>
          <octave>4</octave>
          </pitch>
        <duration>4</duration>
        <voice>1</voice>
        <type>half</type>
        <accidental>sharp</accidental>
        <stem>down</stem>
        </note>
      <note>
        <rest/>
        <duration>3</duration>
        <voice>1</voice>
        <type>quarter</type>
        <dot/>
        </note>
      <note default-x="99.68" default-y="10.00">
        <pitch>
          <step>C</step>
          <octave>5</octave>
          </pitch>
        <duration>1</duration>
        <voice>1</voice>
        <type>eighth</type>
        <stem>down</stem>
        <notations>
          <technical>
            <string>2</string>
            </technical>
          </notations>
        </note>
      </measure>
    <measure number="47" width="94.88">
      <note default-x="12.00" default-y="10.00">
        <pitch>
          <step>C</step>
          <octave>5</octave>
          </pitch>
        <duration>8</duration>
        <voice>1</voice>
        <type>whole</type>
        <notations>
          <technical>
            <string>2</string>
            </technical>
          </notations>
        </note>
      </measure>
    <measure number="48" width="107.98">
      <note default-x="12.00" default-y="-20.00">
        <pitch>
          <step>D</step>
          <octave>4</octave>
          </pitch>
        <duration>4</duration>
        <voice>1</voice>
        <type>half</type>
        <stem>down</stem>
        <notations>
          <technical>
            <string>0</string>
            </technical>
          </notations>
        </note>
      <note>
        <rest/>
        <duration>4</duration>
        <voice>1</voice>
        <type>half</type>
        </note>
      </measure>
    <measure number="49" width="94.88">
      <note default-x="12.00" default-y="-20.00">
        <pitch>
          <step>D</step>
          <octave>4</octave>
          </pitch>
        <duration>8</duration>
        <tie type="start"/>
        <voice>1</voice>
        <type>whole</type>
        <notations>
          <tied type="start"/>
          <technical>
            <string>0</string>
            </technical>
          </notations>
        </note>
      </measure>
    <measure number="50" width="139.73">
      <note default-x="12.00" default-y="-20.00">
        <pitch>
          <step>D</step>
          <octave>4</octave>
          </pitch>
        <duration>2</duration>
        <tie type="stop"/>
        <voice>1</voice>
        <type>quarter</type>
        <stem>down</stem>
        <notations>
          <tied type="stop"/>
          </notations>
        </note>
      <note default-x="43.53" default-y="-20.00">
        <pitch>
          <step>D</step>
          <octave>4</octave>
          </pitch>
        <duration>2</duration>
        <voice>1</voice>
        <type>quarter</type>
        <stem>down</stem>
        <notations>
          <technical>
            <string>0</string>
            </technical>
          </notations>
        </note>
      <note default-x="75.06" default-y="-25.00">
        <pitch>
          <step>C</step>
          <octave>4</octave>
          </pitch>
        <duration>2</duration>
        <voice>1</voice>
        <type>quarter</type>
        <stem>up</stem>
        <notations>
          <technical>
            <string>4</string>
            </technical>
          </notations>
        </note>
      <note default-x="106.59" default-y="-30.00">
        <pitch>
          <step>B</step>
          <octave>3</octave>
          </pitch>
        <duration>2</duration>
        <voice>1</voice>
        <type>quarter</type>
        <stem>up</stem>
        <notations>
          <technical>
            <string>3</string>
            </technical>
          </notations>
        </note>
      </measure>
    <measure number="51" width="165.08">
      <print new-system="yes">
        <system-layout>
          <system-margins>
            <left-margin>55.49</left-margin>
            <right-margin>0.00</right-margin>
            </system-margins>
          <system-distance>110.62</system-distance>
          </system-layout>
        </print>
      <note default-x="54.33" default-y="-5.00">
        <pitch>
          <step>G</step>
          <octave>4</octave>
          </pitch>
        <duration>6</duration>
        <voice>1</voice>
        <type>half</type>
        <dot/>
        <stem>down</stem>
        <notations>
          <technical>
            <string>4</string>
            </technical>
          </notations>
        </note>
      <note default-x="126.49" default-y="-15.00">
        <pitch>
          <step>E</step>
          <octave>4</octave>
          </pitch>
        <duration>2</duration>
        <voice>1</voice>
        <type>quarter</type>
        <stem>down</stem>
        <notations>
          <technical>
            <string>1</string>
            </technical>
          </notations>
        </note>
      </measure>
    <measure number="52" width="116.08">
      <note default-x="12.00" default-y="-25.00">
        <pitch>
          <step>C</step>
          <octave>4</octave>
          </pitch>
        <duration>4</duration>
        <voice>1</voice>
        <type>half</type>
        <stem>up</stem>
        <notations>
          <technical>
            <string>4</string>
            </technical>
          </notations>
        </note>
      <note>
        <rest/>
        <duration>4</duration>
        <voice>1</voice>
        <type>half</type>
        </note>
      </measure>
    <measure number="53" width="102.98">
      <note default-x="12.00" default-y="-10.00">
        <pitch>
          <step>F</step>
          <octave>4</octave>
          </pitch>
        <duration>8</duration>
        <tie type="start"/>
        <voice>1</voice>
        <type>whole</type>
        <notations>
          <tied type="start"/>
          <technical>
            <string>2</string>
            </technical>
          </notations>
        </note>
      </measure>
    <measure number="54" width="147.83">
      <note default-x="12.00" default-y="-10.00">
        <pitch>
          <step>F</step>
          <octave>4</octave>
          </pitch>
        <duration>2</duration>
        <tie type="stop"/>
        <voice>1</voice>
        <type>quarter</type>
        <stem>down</stem>
        <notations>
          <tied type="stop"/>
          </notations>
        </note>
      <note default-x="45.56" default-y="-10.00">
        <pitch>
          <step>F</step>
          <octave>4</octave>
          </pitch>
        <duration>2</duration>
        <voice>1</voice>
        <type>quarter</type>
        <stem>down</stem>
        <notations>
          <technical>
            <string>2</string>
            </technical>
          </notations>
        </note>
      <note default-x="79.11" default-y="-15.00">
        <pitch>
          <step>E</step>
          <octave>4</octave>
          </pitch>
        <duration>2</duration>
        <voice>1</voice>
        <type>quarter</type>
        <stem>down</stem>
        <notations>
          <technical>
            <string>1</string>
            </technical>
          </notations>
        </note>
      <note default-x="112.67" default-y="-20.00">
        <pitch>
          <step>D</step>
          <octave>4</octave>
          </pitch>
        <duration>2</duration>
        <voice>1</voice>
        <type>quarter</type>
        <stem>down</stem>
        <notations>
          <technical>
            <string>0</string>
            </technical>
          </notations>
        </note>
      </measure>
    <measure number="55" width="122.74">
      <note default-x="12.00" default-y="15.00">
        <pitch>
          <step>D</step>
          <octave>5</octave>
          </pitch>
        <duration>6</duration>
        <voice>1</voice>
        <type>half</type>
        <dot/>
        <stem>down</stem>
        <notations>
          <technical>
            <string>4</string>
            </technical>
          </notations>
        </note>
      <note default-x="84.16" default-y="5.00">
        <pitch>
          <step>B</step>
          <octave>4</octave>
          </pitch>
        <duration>2</duration>
        <voice>1</voice>
        <type>quarter</type>
        <stem>down</stem>
        <notations>
          <technical>
            <string>1</string>
            </technical>
          </notations>
        </note>
      </measure>
    <measure number="56" width="116.08">
      <note default-x="12.00" default-y="-5.00">
        <pitch>
          <step>G</step>
          <octave>4</octave>
          </pitch>
        <duration>4</duration>
        <voice>1</voice>
        <type>half</type>
        <stem>down</stem>
        <notations>
          <technical>
            <string>4</string>
            </technical>
          </notations>
        </note>
      <note>
        <rest/>
        <duration>4</duration>
        <voice>1</voice>
        <type>half</type>
        </note>
      </measure>
    <measure number="57" width="102.98">
      <note default-x="12.00" default-y="0.00">
        <pitch>
          <step>A</step>
          <octave>4</octave>
          </pitch>
        <duration>8</duration>
        <tie type="start"/>
        <voice>1</voice>
        <type>whole</type>
        <notations>
          <tied type="start"/>
          <technical>
            <string>0</string>
            </technical>
          </notations>
        </note>
      </measure>
    <measure number="58" width="147.83">
      <note default-x="12.00" default-y="0.00">
        <pitch>
          <step>A</step>
          <octave>4</octave>
          </pitch>
        <duration>2</duration>
        <tie type="stop"/>
        <voice>1</voice>
        <type>quarter</type>
        <stem>down</stem>
        <notations>
          <tied type="stop"/>
          </notations>
        </note>
      <note default-x="45.56" default-y="0.00">
        <pitch>
          <step>A</step>
          <octave>4</octave>
          </pitch>
        <duration>2</duration>
        <voice>1</voice>
        <type>quarter</type>
        <stem>down</stem>
        <notations>
          <technical>
            <string>0</string>
            </technical>
          </notations>
        </note>
      <note default-x="79.11" default-y="5.00">
        <pitch>
          <step>B</step>
          <octave>4</octave>
          </pitch>
        <duration>2</duration>
        <voice>1</voice>
        <type>quarter</type>
        <stem>down</stem>
        <notations>
          <technical>
            <string>1</string>
            </technical>
          </notations>
        </note>
      <note default-x="112.67" default-y="10.00">
        <pitch>
          <step>C</step>
          <octave>5</octave>
          </pitch>
        <duration>2</duration>
        <voice>1</voice>
        <type>quarter</type>
        <stem>down</stem>
        <notations>
          <technical>
            <string>2</string>
            </technical>
          </notations>
        </note>
      </measure>
    <measure number="59" width="156.60">
      <print new-system="yes">
        <system-layout>
          <system-margins>
            <left-margin>55.49</left-margin>
            <right-margin>0.00</right-margin>
            </system-margins>
          <system-distance>110.62</system-distance>
          </system-layout>
        </print>
      <note default-x="54.33" default-y="20.00">
        <pitch>
          <step>E</step>
          <octave>5</octave>
          </pitch>
        <duration>8</duration>
        <tie type="start"/>
        <voice>1</voice>
        <type>whole</type>
        <notations>
          <tied type="start"/>
          <technical>
            <string>1</string>
            </technical>
          </notations>
        </note>
      </measure>
    <measure number="60" width="159.12">
      <note default-x="12.00" default-y="20.00">
        <pitch>
          <step>E</step>
          <octave>5</octave>
          </pitch>
        <duration>2</duration>
        <tie type="stop"/>
        <voice>1</voice>
        <type>quarter</type>
        <stem>down</stem>
        <notations>
          <tied type="stop"/>
          </notations>
        </note>
      <note default-x="48.38" default-y="10.00">
        <pitch>
          <step>C</step>
          <octave>5</octave>
          </pitch>
        <duration>2</duration>
        <voice>1</voice>
        <type>quarter</type>
        <stem>down</stem>
        <notations>
          <technical>
            <string>2</string>
            </technical>
          </notations>
        </note>
      <note default-x="84.76" default-y="-5.00">
        <pitch>
          <step>G</step>
          <octave>4</octave>
          </pitch>
        <duration>2</duration>
        <voice>1</voice>
        <type>quarter</type>
        <stem>down</stem>
        <notations>
          <technical>
            <string>4</string>
            </technical>
          </notations>
        </note>
      <note default-x="121.14" default-y="-15.00">
        <pitch>
          <step>E</step>
          <octave>4</octave>
          </pitch>
        <duration>2</duration>
        <voice>1</voice>
        <type>quarter</type>
        <stem>down</stem>
        <notations>
          <technical>
            <string>1</string>
            </technical>
          </notations>
        </note>
      </measure>
    <measure number="61" width="114.27">
      <note default-x="12.00" default-y="-20.00">
        <pitch>
          <step>D</step>
          <octave>4</octave>
          </pitch>
        <duration>8</duration>
        <tie type="start"/>
        <voice>1</voice>
        <type>whole</type>
        <notations>
          <tied type="start"/>
          <technical>
            <string>0</string>
            </technical>
          </notations>
        </note>
      </measure>
    <measure number="62" width="159.12">
      <note default-x="12.00" default-y="-20.00">
        <pitch>
          <step>D</step>
          <octave>4</octave>
          </pitch>
        <duration>2</duration>
        <tie type="stop"/>
        <voice>1</voice>
        <type>quarter</type>
        <stem>down</stem>
        <notations>
          <tied type="stop"/>
          </notations>
        </note>
      <note default-x="48.38" default-y="0.00">
        <pitch>
          <step>A</step>
          <octave>4</octave>
          </pitch>
        <duration>2</duration>
        <voice>1</voice>
        <type>quarter</type>
        <stem>down</stem>
        <notations>
          <technical>
            <string>0</string>
            </technical>
          </notations>
        </note>
      <note default-x="84.76" default-y="5.00">
        <pitch>
          <step>B</step>
          <octave>4</octave>
          </pitch>
        <duration>2</duration>
        <voice>1</voice>
        <type>quarter</type>
        <stem>down</stem>
        <notations>
          <technical>
            <string>1</string>
            </technical>
          </notations>
        </note>
      <note default-x="121.14" default-y="0.00">
        <pitch>
          <step>A</step>
          <octave>4</octave>
          </pitch>
        <duration>2</duration>
        <voice>1</voice>
        <type>quarter</type>
        <stem>down</stem>
        <notations>
          <technical>
            <string>0</string>
            </technical>
          </notations>
        </note>
      </measure>
    <measure number="63" width="159.12">
      <note default-x="12.00" default-y="-5.00">
        <pitch>
          <step>G</step>
          <octave>4</octave>
          </pitch>
        <duration>2</duration>
        <voice>1</voice>
        <type>quarter</type>
        <stem>down</stem>
        <notations>
          <technical>
            <string>4</string>
            </technical>
          </notations>
        </note>
      <note default-x="48.38" default-y="15.00">
        <pitch>
          <step>D</step>
          <octave>5</octave>
          </pitch>
        <duration>2</duration>
        <voice>1</voice>
        <type>quarter</type>
        <stem>down</stem>
        <notations>
          <technical>
            <string>4</string>
            </technical>
          </notations>
        </note>
      <note default-x="84.76" default-y="5.00">
        <pitch>
          <step>B</step>
          <octave>4</octave>
          </pitch>
        <duration>2</duration>
        <voice>1</voice>
        <type>quarter</type>
        <stem>down</stem>
        <notations>
          <technical>
            <string>1</string>
            </technical>
          </notations>
        </note>
      <note default-x="121.14" default-y="-5.00">
        <pitch>
          <step>G</step>
          <octave>4</octave>
          </pitch>
        <duration>2</duration>
        <voice>1</voice>
        <type>quarter</type>
        <stem>down</stem>
        <notations>
          <technical>
            <string>4</string>
            </technical>
          </notations>
        </note>
      </measure>
    <measure number="64" width="159.12">
      <note default-x="12.00" default-y="-10.00">
        <pitch>
          <step>F</step>
          <octave>4</octave>
          </pitch>
        <duration>2</duration>
        <voice>1</voice>
        <type>quarter</type>
        <stem>down</stem>
        <notations>
          <technical>
            <string>2</string>
            </technical>
          </notations>
        </note>
      <note default-x="48.38" default-y="-20.00">
        <pitch>
          <step>D</step>
          <octave>4</octave>
          </pitch>
        <duration>2</duration>
        <voice>1</voice>
        <type>quarter</type>
        <stem>down</stem>
        <notations>
          <technical>
            <string>0</string>
            </technical>
          </notations>
        </note>
      <note default-x="84.76" default-y="-30.00">
        <pitch>
          <step>B</step>
          <octave>3</octave>
          </pitch>
        <duration>2</duration>
        <voice>1</voice>
        <type>quarter</type>
        <stem>up</stem>
        <notations>
          <technical>
            <string>3</string>
            </technical>
          </notations>
        </note>
      <note default-x="121.14" default-y="-40.00">
        <pitch>
          <step>G</step>
          <octave>3</octave>
          </pitch>
        <duration>2</duration>
        <voice>1</voice>
        <type>quarter</type>
        <stem>up</stem>
        <notations>
          <technical>
            <string>0</string>
            </technical>
          </notations>
        </note>
      </measure>
    <measure number="65" width="114.27">
      <note default-x="12.00" default-y="-25.00">
        <pitch>
          <step>C</step>
          <octave>4</octave>
          </pitch>
        <duration>8</duration>
        <tie type="start"/>
        <voice>1</voice>
        <type>whole</type>
        <notations>
          <tied type="start"/>
          <technical>
            <string>4</string>
            </technical>
          </notations>
        </note>
      </measure>
    <measure number="66" width="205.35">
      <print new-system="yes">
        <system-layout>
          <system-margins>
            <left-margin>55.49</left-margin>
            <right-margin>0.00</right-margin>
            </system-margins>
          <system-distance>110.62</system-distance>
          </system-layout>
        </print>
      <note default-x="54.33" default-y="-25.00">
        <pitch>
          <step>C</step>
          <octave>4</octave>
          </pitch>
        <duration>8</duration>
        <tie type="stop"/>
        <voice>1</voice>
        <type>whole</type>
        <notations>
          <tied type="stop"/>
          </notations>
        </note>
      </measure>
    <measure number="67" width="163.01">
      <note default-x="12.00" default-y="-25.00">
        <pitch>
          <step>C</step>
          <octave>4</octave>
          </pitch>
        <duration>8</duration>
        <voice>1</voice>
        <type>whole</type>
        <notations>
          <technical>
            <string>4</string>
            </technical>
          </notations>
        </note>
      </measure>
    <measure number="68" width="158.21">
      <note>
        <rest/>
        <duration>8</duration>
        <voice>1</voice>
        <type>whole</type>
        </note>
      </measure>
    <measure number="69" width="163.01">
      <note default-x="12.00" default-y="-5.00">
        <pitch>
          <step>G</step>
          <octave>4</octave>
          </pitch>
        <duration>8</duration>
        <tie type="start"/>
        <voice>1</voice>
        <type>whole</type>
        <notations>
          <tied type="start"/>
          <technical>
            <string>4</string>
            </technical>
          </notations>
        </note>
      </measure>
    <measure number="70" width="163.01">
      <note default-x="12.00" default-y="-5.00">
        <pitch>
          <step>G</step>
          <octave>4</octave>
          </pitch>
        <duration>8</duration>
        <tie type="stop"/>
        <voice>1</voice>
        <type>whole</type>
        <notations>
          <tied type="stop"/>
          </notations>
        </note>
      </measure>
    <measure number="71" width="169.01">
      <note default-x="12.00" default-y="-25.00">
        <pitch>
          <step>C</step>
          <octave>4</octave>
          </pitch>
        <duration>8</duration>
        <voice>1</voice>
        <type>whole</type>
        <notations>
          <technical>
            <string>4</string>
            </technical>
          </notations>
        </note>
      <barline location="right">
        <bar-style>light-heavy</bar-style>
        </barline>
      </measure>
    </part>
  </score-partwise>
